name ../VV_Laxity/vv_0.mot
datacolumns  10
datarows 23
range   21.00000000 21.22000000
cursor 1.0 1.0 0.0
keys m_key
wrap
enforce_loops no
enforce_constraints no
calc_derivatives -1.000000
event_color 0.000000 0.000000 0.000000
endheader
            time femur_r_force_vx femur_r_force_vy femur_r_force_vz femur_r_force_px femur_r_force_py femur_r_force_pz femur_r_torque_x femur_r_torque_y femur_r_torque_z 
     21.00000000       0.00000000       0.00000000       0.00000000      -0.00600000      -0.51300000       0.00000000       8.81081028       0.00000000       0.00000000 
     21.01000000       0.00000000       0.00000000       0.00000000      -0.00600000      -0.51300000       0.00000000       8.82828725       0.00000000       0.00000000 
     21.02000000       0.00000000       0.00000000       0.00000000      -0.00600000      -0.51300000       0.00000000       8.84565191       0.00000000       0.00000000 
     21.03000000       0.00000000       0.00000000       0.00000000      -0.00600000      -0.51300000       0.00000000       8.86290375       0.00000000       0.00000000 
     21.04000000       0.00000000       0.00000000       0.00000000      -0.00600000      -0.51300000       0.00000000       8.88004225       0.00000000       0.00000000 
     21.05000000       0.00000000       0.00000000       0.00000000      -0.00600000      -0.51300000       0.00000000       8.89706691       0.00000000       0.00000000 
     21.06000000       0.00000000       0.00000000       0.00000000      -0.00600000      -0.51300000       0.00000000       8.91397724       0.00000000       0.00000000 
     21.07000000       0.00000000       0.00000000       0.00000000      -0.00600000      -0.51300000       0.00000000       8.93077274       0.00000000       0.00000000 
     21.08000000       0.00000000       0.00000000       0.00000000      -0.00600000      -0.51300000       0.00000000       8.94745291       0.00000000       0.00000000 
     21.09000000       0.00000000       0.00000000       0.00000000      -0.00600000      -0.51300000       0.00000000       8.96401727       0.00000000       0.00000000 
     21.10000000       0.00000000       0.00000000       0.00000000      -0.00600000      -0.51300000       0.00000000       8.98046533       0.00000000       0.00000000 
     21.11000000       0.00000000       0.00000000       0.00000000      -0.00600000      -0.51300000       0.00000000       8.99679661       0.00000000       0.00000000 
     21.12000000       0.00000000       0.00000000       0.00000000      -0.00600000      -0.51300000       0.00000000       9.01301062       0.00000000       0.00000000 
     21.13000000       0.00000000       0.00000000       0.00000000      -0.00600000      -0.51300000       0.00000000       9.02910690       0.00000000       0.00000000 
     21.14000000       0.00000000       0.00000000       0.00000000      -0.00600000      -0.51300000       0.00000000       9.04508497       0.00000000       0.00000000 
     21.15000000       0.00000000       0.00000000       0.00000000      -0.00600000      -0.51300000       0.00000000       9.06094436       0.00000000       0.00000000 
     21.16000000       0.00000000       0.00000000       0.00000000      -0.00600000      -0.51300000       0.00000000       9.07668461       0.00000000       0.00000000 
     21.17000000       0.00000000       0.00000000       0.00000000      -0.00600000      -0.51300000       0.00000000       9.09230526       0.00000000       0.00000000 
     21.18000000       0.00000000       0.00000000       0.00000000      -0.00600000      -0.51300000       0.00000000       9.10780584       0.00000000       0.00000000 
     21.19000000       0.00000000       0.00000000       0.00000000      -0.00600000      -0.51300000       0.00000000       9.12318590       0.00000000       0.00000000 
     21.20000000       0.00000000       0.00000000       0.00000000      -0.00600000      -0.51300000       0.00000000       9.13844499       0.00000000       0.00000000 
     21.21000000       0.00000000       0.00000000       0.00000000      -0.00600000      -0.51300000       0.00000000       9.15358267       0.00000000       0.00000000 
     21.22000000       0.00000000       0.00000000       0.00000000      -0.00600000      -0.51300000       0.00000000       9.16859848       0.00000000       0.00000000 
